<svg version="1" xmlns="http://www.w3.org/2000/svg" width="682.667" height="682.667" viewBox="0 0 512.000000 512.000000"><path d="M0 85.5V171h84V86h85V0H0v85.5z"/><path d="M254 128v128H0v256h84v-85h255v85h86v-85h85v42.5c0 27.7.3 42.5 1 42.5s1-86 1-256V0H254v128zm256 0v42h-85V86h85v42zm-85 85.5V256h85v85h-85v85h-85v-85h85v-85h-85v-85h85v42.5z"/><path d="M456.2 127.7l.3 15.8H468c11.2 0 11.5-.1 11.8-2.3.3-2.1.1-2.2-9.2-2.2H461v-10h8.5c7.8 0 8.5-.2 8.5-2s-.7-2-8.5-2H461v-9h9c8.3 0 9-.1 9-2s-.7-2-11.5-2h-11.6l.3 15.7zM375 198.9c-5 2.6-7.3 7.2-7.3 14 0 7 2.1 11.1 7.3 14 9 5 19.3.5 21.9-9.7 3.7-13.5-9.8-24.8-21.9-18.3zm11.3 3.2c3.9 2 5.7 5.1 5.7 10.1 0 2.6-.5 5.8-1.1 7.2-1.6 3.3-6.8 5.8-10.8 5-4.9-1-7.1-4.6-7.1-11.6 0-5.2.3-6.3 2.9-8.9 3.1-3.1 6.7-3.7 10.4-1.8zM453.7 282.6c-.3.3 2.1 4.5 5.4 9.4 5.7 8.5 5.9 8.9 5.9 15.4 0 6.4.1 6.6 2.5 6.6s2.5-.2 2.5-6.8c0-7.1 0-7 7.7-18 2.3-3.3 3.9-6.3 3.6-6.6-.4-.3-1.6-.6-2.9-.6-1.7 0-3.3 1.7-6.5 7l-4.3 6.9-4.4-6.9c-3.3-5.3-4.9-7-6.6-7-1.3 0-2.5.3-2.9.6zM373.4 370.3c-3.3 2.9-3.7 7.9-.8 10.7 1.1 1.1 5 3 8.8 4.2 8.3 2.7 10.2 5 6.7 7.9-4.2 3.5-11.3 2.1-13.1-2.7-1-2.4-4.3-3.3-5.5-1.4-.9 1.4 2.2 6.8 5.1 8.6 1.5 1 4.7 1.7 7.9 1.8 6.4 0 10.5-2.4 11.9-7.2 1.6-5.6-2.2-9.1-13.4-12.4-5-1.4-6.5-4.3-3.4-6.5 2.9-2.1 7.2-1.6 10 1.2 3.3 3.3 6.8 3.4 5.9.2-1.3-4.5-5.1-6.7-11.5-6.7-4.7 0-6.4.5-8.6 2.3zM200 42v16h8.5c4.6 0 9.5-.5 10.8-1.1 4.7-2.1 6.1-8.9 2.7-13.2-1.9-2.4-1.9-2.6-.3-5.5 1.7-2.9 1.7-3.2 0-6.6-2.1-4.5-4.8-5.6-14.3-5.6H200v16zm16.8-7.5c.5 3.8-1.9 5.5-7.5 5.5H205v-9.1l5.8.3c5.5.3 5.7.4 6 3.3zm0 11.1c4.9 3.4.9 8.4-6.8 8.4h-5V44h4.8c2.7 0 5.7.7 7 1.6zM120 113.3c-4.5 2.3-7 7.3-7 14.1 0 10.4 5.1 16 14.4 16 5.7 0 8.8-1.6 11.7-6.1 2.4-3.6 2.4-3.9-.3-4.6-1.7-.5-2.9.2-5.1 2.8-3.1 3.8-6.5 4.5-11.1 2.4-5.4-2.5-6.2-15.3-1.1-19.6 3.9-3.4 8.7-3.1 11.9.8 1.9 2.2 3.1 2.9 4.6 2.4 2.8-.9 2.5-2.2-1.4-6.1-3-3-4-3.4-8.7-3.4-3 0-6.5.6-7.9 1.3zM199.2 124.2c.3 6.8.8 13.1 1.2 14 2.2 4.9 13.6 7 19 3.5 3.9-2.6 4.6-5.4 4.6-18.3V112h-5v11.5c0 13.1-1.1 15.5-7.3 15.5-5.9 0-7.1-2.5-7.5-15.6l-.4-11.4h-5l.4 12.2zM32 213v16h10.1c9.8 0 10 0 9.7-2.3-.3-2-.9-2.2-7.5-2.5l-7.3-.3V197h-5v16zM114 199c0 1.7.7 2 5 2h5v14.1c0 14 0 14 2.3 13.7 2.1-.3 2.2-.6 2.5-14.1l.3-13.7h4.9c4.3 0 5-.3 5-2 0-1.9-.7-2-12.5-2s-12.5.1-12.5 2zM200.2 212.7l.3 15.8 11.8.3c11.8.3 11.8.3 11.5-2-.3-2.2-.8-2.3-9.5-2.6l-9.3-.3V215h8.5c8.4 0 8.5 0 8.5-2.5s-.1-2.5-8.5-2.5H205v-9h9c8.3 0 9-.1 9-2s-.7-2-11.5-2h-11.6l.3 15.7zM114.4 454.3c-.2.7-.3 7.8-.2 15.7l.3 14.5 7.9.3c9.2.3 13.1-.9 15.1-4.9 2-3.8 1.9-6.2-.6-9.3-1.8-2.3-1.9-3-.8-5.9 1.6-4.6.5-8.3-3.1-10.2-3.7-1.9-17.8-2.1-18.6-.2zm15.7 3.7c2.1 1.2 2.5 5 .7 6.8-.7.7-3.4 1.2-6 1.2H120v-9h4.1c2.2 0 4.9.5 6 1zm1.7 13.9c.8.5 1.2 2.2 1 4.2l-.3 3.4-6.2.3-6.3.3V471h5.3c2.8 0 5.8.4 6.5.9zM200.2 468.7l.3 15.8 11.8.3c11.8.3 11.8.3 11.5-2-.3-2.2-.8-2.3-9.5-2.6l-9.3-.3V471h8.5c8.4 0 8.5 0 8.5-2.5s-.1-2.5-8.5-2.5H205v-9h9c8.3 0 9-.1 9-2s-.7-2-11.5-2h-11.6l.3 15.7zM292.9 455.7c-.6 1.5-2.4 6.2-3.9 10.3-1.5 4.1-3.7 9.9-4.9 12.8-1.8 4.5-1.9 5.3-.6 5.8 2.6 1 4.1-.2 5.5-4.5l1.3-4.2 6.5.3 6.5.3 1.5 4.3c1.1 3.4 1.8 4.2 3.8 4.2 1.3 0 2.4-.6 2.4-1.3 0-.7-2.6-7.8-5.8-15.7-5.3-13.2-6.1-14.5-8.5-14.8-2.2-.3-2.9.2-3.8 2.5zm7.7 14.5c.5 1.5-.1 1.8-3.9 1.8h-4.5l2.1-6.5 2.1-6.5 1.8 4.8c1 2.6 2.1 5.5 2.4 6.4zM458.5 454.2c-.3.8-.4 7.9-.3 15.8l.3 14.5 9.8.3c8.3.2 9.8 0 10.4-1.4.9-2.4-1.5-3.4-8.4-3.4h-6.2l-.3-13.3c-.3-12.8-.4-13.2-2.6-13.5-1.2-.2-2.4.3-2.7 1z"/></svg>